<svg width="44" height="44" viewBox="0 0 44 44" fill="none" xmlns="http://www.w3.org/2000/svg">
<path d="M20.6904 10.5166H10.5713V20.6357C11.1482 15.3189 15.3736 11.1091 20.6904 10.5166Z" fill="white"/>
<path d="M23.2317 33.2962H33.3508V23.1771C32.7739 28.4939 28.5485 32.7037 23.2317 33.2962Z" fill="white"/>
<path d="M33.3354 20.6357V10.5166H23.2163C28.5331 11.0935 32.7429 15.3189 33.3354 20.6357Z" fill="white"/>
<path d="M33.8809 33.2962H43.9999V23.1771C43.423 28.4939 39.1977 32.7037 33.8809 33.2962Z" fill="white"/>
<path d="M43.9999 20.6357V10.5166H33.8809C39.1977 11.0935 43.4074 15.3189 43.9999 20.6357Z" fill="white"/>
<path d="M10.5713 23.1771V33.2962H20.6904C15.3736 32.7193 11.1638 28.4939 10.5713 23.1771Z" fill="white"/>
<path d="M10.1191 10.5166H0V20.6357C0.576896 15.3189 4.80227 11.1091 10.1191 10.5166Z" fill="white"/>
<path d="M20.6904 0.00778198H10.5713V10.1268C11.1482 4.81005 15.3736 0.60027 20.6904 0.00778198Z" fill="white"/>
<path d="M33.3354 10.1268V0.00778198H23.2163C28.5331 0.584678 32.7429 4.81005 33.3354 10.1268Z" fill="white"/>
<path d="M43.9999 10.1268V0.00778198H33.8809C39.1977 0.584678 43.4074 4.81005 43.9999 10.1268Z" fill="white"/>
<path d="M10.1191 0.00778198H0V10.1268C0.576896 4.81005 4.80227 0.60027 10.1191 0.00778198Z" fill="white"/>
<path d="M0 23.1771V33.2962H10.1191C4.80227 32.7193 0.592488 28.4939 0 23.1771Z" fill="white"/>
<path d="M23.2317 43.9922H33.3508V33.8731C32.7739 39.1899 28.5485 43.3997 23.2317 43.9922Z" fill="white"/>
<path d="M33.8809 43.9922H43.9999V33.8731C43.423 39.1899 39.1977 43.3997 33.8809 43.9922Z" fill="white"/>
<path d="M10.5713 33.8731V43.9922H20.6904C15.3736 43.4153 11.1638 39.1899 10.5713 33.8731Z" fill="white"/>
<path d="M0 33.8731V43.9922H10.1191C4.80227 43.4153 0.592488 39.1899 0 33.8731Z" fill="white"/>
</svg>
