<svg width="375" height="1" viewBox="0 0 375 1" fill="none" xmlns="http://www.w3.org/2000/svg">
<path d="M142.679 1.07884e-05C144.947 -0.000345111 147.072 0.00816226 149.757 0.0189322C149.759 0.0189322 149.76 0.0189322 149.761 0.0189322C150.145 0.0204709 150.54 0.0220823 150.949 0.0236931C154.238 0.0366642 158.512 0.0518869 164.956 0.0606204C172.077 0.0702721 177.73 0.105216 181.183 0.138748C181.826 0.145002 182.493 0.148438 184.174 0.151565C185.276 0.153616 186.767 0.155468 188.917 0.158157C190.061 0.159588 191.393 0.161234 192.951 0.163284C198.111 0.170071 206.197 0.167958 213.648 0.16597C218.17 0.164763 222.459 0.16361 225.717 0.164566C230.482 0.165964 235.079 0.172237 240.077 0.179093C244.654 0.185372 249.567 0.192148 255.252 0.196C259.614 0.198957 263.851 0.224344 268.158 0.252703C268.706 0.256313 269.256 0.259961 269.807 0.263629C273.608 0.288933 277.492 0.314838 281.693 0.329671C289.182 0.356109 295.157 0.345185 301.773 0.333089C304.361 0.328358 307.047 0.32344 309.96 0.320515C314.567 0.31589 321.19 0.316824 327.84 0.318135C328.407 0.318247 328.974 0.318326 329.54 0.31844C329.543 0.31844 329.545 0.31844 329.548 0.31844C335.636 0.319671 341.61 0.320879 345.993 0.318196C352.959 0.313932 355.579 0.303858 357.765 0.295429C358.587 0.292261 359.347 0.289302 360.254 0.287006C363.52 0.278738 368.45 0.280273 373.448 0.281818C373.467 0.281818 373.486 0.281818 373.505 0.281818C374.335 0.282074 375.004 0.31031 375 0.344869C374.996 0.379431 374.32 0.407261 373.491 0.407005C370.844 0.406186 368.26 0.405395 365.948 0.405967C365.828 0.435662 365.205 0.45814 364.459 0.457909C362.59 0.457338 356.866 0.479709 347.909 0.516261C348.522 0.521673 349.036 0.52694 349.487 0.531947C350.015 0.537824 350.42 0.542878 350.769 0.547206C351.494 0.556229 351.977 0.562183 352.834 0.566555C354.819 0.571525 357.939 0.572559 361.223 0.573574C362.052 0.57384 362.721 0.602019 362.718 0.636564C362.714 0.671118 362.038 0.698943 361.208 0.6987C361.192 0.6987 361.176 0.6987 361.16 0.6987C357.908 0.697695 354.688 0.696674 352.614 0.691376C352.086 0.690027 351.632 0.688431 351.291 0.686981C351.018 0.685821 350.677 0.684247 350.488 0.68222C350.463 0.68195 350.415 0.681405 350.358 0.680572C350.357 0.680552 350.356 0.680531 350.355 0.680511C350.323 0.68005 350.16 0.677718 349.986 0.672637C349.951 0.671611 349.875 0.66932 349.786 0.665618C349.763 0.665333 349.74 0.665048 349.717 0.664763C349.398 0.66081 349.072 0.65678 348.72 0.652861C347.344 0.637564 345.165 0.618284 340.626 0.597867C336.452 0.57909 329.395 0.570671 320.59 0.570523C321.185 0.573111 321.781 0.57562 322.377 0.57803C323.876 0.584086 325.382 0.589609 326.889 0.594876C327.466 0.596888 328.035 0.598858 328.616 0.600797C329.549 0.603932 330.486 0.607009 331.422 0.610013C332.055 0.612047 332.689 0.614046 333.322 0.616056C333.323 0.616056 333.325 0.616056 333.326 0.616056C334.205 0.618847 335.086 0.621654 335.974 0.62454C336.285 0.625614 336.592 0.626646 336.897 0.627653C338.11 0.631661 339.302 0.635551 340.675 0.643095C340.842 0.644345 341.023 0.645961 341.158 0.647307C341.304 0.648726 341.444 0.650171 341.576 0.651641C341.693 0.652938 341.804 0.654258 341.911 0.655486C341.925 0.655649 341.939 0.655811 341.954 0.655974C342.073 0.657348 342.187 0.658619 342.297 0.659819C342.406 0.661019 342.512 0.662174 342.616 0.663177C342.617 0.663177 342.618 0.663177 342.619 0.663177C342.727 0.664204 342.81 0.664977 342.925 0.665862C343.069 0.666971 343.194 0.667824 343.344 0.66867C343.49 0.669492 343.641 0.670226 343.795 0.670867C343.948 0.671507 344.104 0.672067 344.263 0.672576C344.421 0.673085 344.582 0.673559 344.745 0.67398C344.907 0.674401 345.071 0.674769 345.237 0.67514C345.402 0.675511 345.569 0.675883 345.737 0.676238C346.124 0.677064 346.495 0.683998 346.767 0.69577C347.04 0.707544 347.191 0.723114 347.189 0.739228C347.187 0.755346 347.032 0.770835 346.757 0.782443C346.482 0.794045 346.11 0.800777 345.723 0.801364C345.618 0.801522 345.512 0.801699 345.406 0.801852C345.342 0.801943 345.279 0.80201 345.215 0.802096C345.045 0.80233 344.872 0.80259 344.699 0.802768C344.526 0.802945 344.351 0.803061 344.174 0.803134C343.996 0.803207 343.817 0.803231 343.635 0.803134C343.453 0.803037 343.267 0.80283 343.078 0.802463C342.894 0.802116 342.684 0.801511 342.496 0.800754C342.359 0.800222 342.189 0.799313 342.048 0.798495C341.901 0.797639 341.756 0.796683 341.616 0.795688C341.476 0.79469 341.341 0.793632 341.211 0.792636C341.197 0.792534 341.184 0.792432 341.17 0.792331C341.055 0.791449 340.945 0.79059 340.841 0.789828C340.724 0.788976 340.614 0.78825 340.509 0.787631C340.393 0.786934 340.323 0.786659 340.237 0.786349C339.099 0.784337 337.692 0.784752 336.35 0.785128C336.182 0.785176 336.014 0.785208 335.848 0.78525C334.967 0.785545 334.088 0.785915 333.209 0.786288C332.57 0.786559 331.931 0.78684 331.291 0.787081C330.349 0.78744 329.404 0.787725 328.46 0.787936C327.873 0.788058 327.298 0.788138 326.713 0.78818C325.186 0.7883 323.654 0.788132 322.12 0.787387C320.588 0.786639 319.046 0.785335 317.503 0.783114C315.967 0.780899 314.37 0.777588 312.828 0.772555C311.695 0.768793 310.533 0.762235 309.458 0.755464C308.88 0.751818 308.315 0.748118 307.757 0.744417C307.755 0.744396 307.753 0.744376 307.752 0.744356C307.262 0.741107 306.779 0.73789 306.3 0.734834C305.271 0.728252 304.261 0.722385 303.251 0.717438C302.243 0.712489 301.239 0.708453 300.227 0.705353C299.223 0.702284 298.202 0.700064 297.192 0.6987C296.176 0.697324 295.178 0.696766 294.13 0.696808C292.752 0.696929 291.384 0.698047 289.979 0.699371C288.584 0.700724 287.178 0.702418 285.769 0.704132C285.276 0.704734 284.783 0.705292 284.288 0.705902C284.286 0.705902 284.284 0.705902 284.283 0.705902C283.368 0.707032 282.452 0.708169 281.535 0.709259C280.118 0.71094 278.698 0.71254 277.273 0.713837C275.848 0.715129 274.414 0.716142 272.973 0.716523C271.531 0.716871 270.051 0.71666 268.564 0.714631C267.237 0.712877 265.9 0.71054 264.593 0.708222C264.248 0.707611 263.903 0.707001 263.557 0.706391C261.919 0.703535 260.333 0.701258 258.765 0.700836C257.198 0.700365 255.632 0.701656 254.052 0.704376C252.476 0.707086 250.88 0.711142 249.272 0.716034C247.657 0.720949 246.062 0.726615 244.436 0.73282C242.821 0.739 241.199 0.745637 239.558 0.752657C238.645 0.756544 237.674 0.760116 236.757 0.763155C235.83 0.766223 234.91 0.768936 234.001 0.771456C233.633 0.772481 233.266 0.773456 232.901 0.774447C232.37 0.775892 231.843 0.777302 231.325 0.77878C230.45 0.781276 229.596 0.783945 228.767 0.787081C227.938 0.790215 227.134 0.79386 226.357 0.798312C225.553 0.802938 224.89 0.807642 224.097 0.814365C222.165 0.82733 220.969 0.831312 219.639 0.835789C219.377 0.83667 219.11 0.837608 218.831 0.838597C217.236 0.843618 215.644 0.847363 214.072 0.850194C212.484 0.853029 210.922 0.854941 209.339 0.856053C207.772 0.85716 206.194 0.857424 204.622 0.856969C203.052 0.856514 201.485 0.855318 199.914 0.853367C198.344 0.851423 196.741 0.848662 195.203 0.845311C194.314 0.843381 193.37 0.840808 192.492 0.838169C191.859 0.836269 191.236 0.834273 190.624 0.83231C190.374 0.831508 190.126 0.830709 189.88 0.829929C189.032 0.82724 188.208 0.824747 187.413 0.822849C186.616 0.820946 185.846 0.819611 185.092 0.819126C184.337 0.818635 183.598 0.818999 182.859 0.820224C182.093 0.821538 181.457 0.823296 180.643 0.826511C180.113 0.828634 179.594 0.830776 179.077 0.83292C178.302 0.83613 177.533 0.839407 176.758 0.842808C175.984 0.846206 175.22 0.849679 174.452 0.853306C174.205 0.854473 173.944 0.855704 173.697 0.856908C172.932 0.860625 172.175 0.864454 171.419 0.868505C170.665 0.872548 169.918 0.876773 169.173 0.881261C168.426 0.885767 167.691 0.890461 166.942 0.895544C165.668 0.904211 164.449 0.908232 163.381 0.910925C162.301 0.913588 161.291 0.915065 160.309 0.91648C160.125 0.916744 159.94 0.917009 159.756 0.917273C158.964 0.91838 158.184 0.919426 157.416 0.920691C156.47 0.922243 155.54 0.924096 154.608 0.926307C153.684 0.92849 152.75 0.93105 151.831 0.934058C150.904 0.937103 150.016 0.940393 149.06 0.944434C148.115 0.948399 147.155 0.953574 146.102 0.959205C145.059 0.964795 143.965 0.970541 142.856 0.975563C141.749 0.980603 140.624 0.984957 139.507 0.988381C138.388 0.991824 137.266 0.994429 136.159 0.996255C135.046 0.998096 133.939 0.999174 132.838 0.999673C131.74 1.00017 130.606 1.00009 129.544 0.99949C127.825 0.998523 126.113 0.997157 124.398 0.995644C122.693 0.994126 120.983 0.992431 119.276 0.990639C117.572 0.988847 115.866 0.986976 114.163 0.985024C112.459 0.983072 110.756 0.981067 109.055 0.979042C108.678 0.978595 108.302 0.978147 107.926 0.9777C106.601 0.976121 105.277 0.97454 103.958 0.973C103.949 0.972979 103.94 0.972959 103.931 0.972939C102.233 0.970979 100.566 0.969072 98.8823 0.967445C98.2643 0.966864 97.6705 0.966316 97.067 0.965858C96.4629 0.965403 95.87 0.965033 95.2717 0.96476C94.6727 0.964488 94.0771 0.964336 93.4907 0.964333C92.8979 0.964338 92.3201 0.964479 91.7369 0.964882C91.2024 0.965235 90.6717 0.96587 90.0918 0.96653C90.0389 0.966591 89.986 0.966652 89.9331 0.966713C89.2986 0.967439 88.5769 0.9679 87.906 0.967567C86.1292 0.966582 84.3975 0.966116 82.6346 0.966164C80.8707 0.966208 79.1107 0.966748 77.336 0.967506C76.643 0.967799 75.9467 0.968159 75.2503 0.968483C74.1668 0.968987 73.0794 0.969493 71.9887 0.969887C70.1941 0.970541 68.3957 0.970837 66.5856 0.970436C64.7825 0.970036 62.9678 0.968908 61.1611 0.966957C59.3559 0.965015 57.5351 0.962262 55.7381 0.958778C53.7359 0.95488 51.7452 0.950575 49.7456 0.946082C47.7493 0.941585 45.7519 0.936874 43.7632 0.932044C41.7674 0.927207 39.7766 0.922241 37.7851 0.917151C35.7925 0.912059 33.8012 0.906848 31.8084 0.901526C30.6158 0.898338 29.4236 0.895093 28.2307 0.891821C27.5996 0.894758 26.9946 0.897636 26.4125 0.900366C22.1118 0.920537 19.0022 0.935087 14.8998 0.945106C14.5069 0.946623 14.1872 0.948785 13.7983 0.951393C13.7241 0.95189 13.6454 0.952388 13.5651 0.952919C13.0568 0.956277 12.4731 0.959791 11.6611 0.962013C10.0412 0.966446 7.55827 0.965482 4.34974 0.936256C3.53924 0.928872 3.02349 0.895545 3.19818 0.861791C3.32099 0.838114 3.75146 0.820521 4.27679 0.81467C3.30623 0.810654 2.33829 0.806453 1.37285 0.80228C0.987488 0.800608 0.625708 0.79284 0.368626 0.780489C0.111692 0.768135 -0.0197779 0.752265 0.00241458 0.736177C0.0246143 0.720084 0.19951 0.704989 0.488789 0.694C0.777965 0.683024 1.15739 0.677078 1.54451 0.677337C2.57148 0.678054 3.59497 0.678779 4.61868 0.67929C5.64324 0.679808 6.66296 0.68011 7.6857 0.680267C8.70815 0.680425 9.73026 0.680405 10.7556 0.680267C11.7769 0.680122 12.8003 0.679891 13.8255 0.679534C14.8572 0.679187 15.8694 0.678699 16.8982 0.678192C17.5146 0.677881 18.1384 0.677574 18.7507 0.677215C18.979 0.677092 19.2017 0.676922 19.4245 0.676788C19.6066 0.676678 19.7897 0.676588 19.9781 0.676483C21.9603 0.675256 23.9615 0.673883 25.9448 0.672393C27.9374 0.67091 29.928 0.669342 31.9186 0.667693C33.9102 0.666045 35.9002 0.664288 37.891 0.662505C39.8808 0.66072 41.8695 0.658876 43.8619 0.656951C45.847 0.655019 47.8402 0.653043 49.8286 0.650908C51.3667 0.649258 52.8917 0.647486 54.4191 0.645598C55.0205 0.642369 55.6156 0.639319 56.203 0.636381C57.9127 0.627832 59.6248 0.616612 61.3113 0.605497C58.3095 0.611023 55.8981 0.619656 53.6023 0.627897C53.2945 0.629002 52.9888 0.630112 52.6839 0.631193C49.5722 0.642234 46.5662 0.65158 42.523 0.649504C31.0237 0.643601 24.356 0.639293 20.2013 0.631254C16.0473 0.623216 14.2624 0.611301 12.5967 0.587613C10.2429 0.554138 5.69992 0.535097 3.41705 0.534389C2.58777 0.534132 1.9184 0.505891 1.92216 0.471338C1.92617 0.436776 2.60193 0.408946 3.43135 0.409202C5.84187 0.409949 10.7578 0.429302 13.5594 0.46914C14.8072 0.486887 16.2421 0.498335 20.3329 0.506251C24.424 0.514166 31.0302 0.518403 42.5516 0.524318C46.4493 0.526319 49.3421 0.517418 52.4207 0.506495C52.7226 0.505424 53.0266 0.5043 53.3334 0.503199C53.3353 0.503199 53.3372 0.503199 53.3391 0.503199C56.167 0.493044 59.2462 0.481974 63.3985 0.477075C72.9689 0.465783 85.8428 0.443891 88.8988 0.431542C89.4986 0.429118 90.0783 0.426396 90.6898 0.423546C93.037 0.412605 95.8708 0.39941 102.257 0.390647C103.654 0.38873 105.29 0.387617 107.075 0.387107C109.754 0.370263 112.355 0.354638 114.617 0.345357C116.569 0.337349 118.368 0.322617 120.113 0.306477C120.615 0.30183 121.12 0.296971 121.625 0.292133C122.842 0.280465 124.059 0.268803 125.245 0.259784C126.191 0.252594 127.181 0.243954 128.228 0.23482C132.04 0.201544 136.609 0.16167 142.563 0.161148C148.874 0.160595 154.278 0.167792 158.938 0.17482C155.516 0.16669 152.874 0.156949 150.673 0.148269C150.257 0.146632 149.86 0.145042 149.477 0.143508C146.772 0.132679 144.805 0.124805 142.698 0.125136C132.631 0.126718 128.855 0.137328 124.594 0.167984C123.473 0.176055 122.235 0.186808 120.902 0.198381C118.238 0.22151 115.19 0.247955 111.916 0.26308C108.866 0.277165 105.455 0.29796 101.841 0.319966C101.839 0.319966 101.838 0.319966 101.836 0.319966C101.13 0.324266 100.416 0.328612 99.6949 0.332967C95.3006 0.359518 90.6787 0.386216 86.1794 0.403037C85.6982 0.404836 85.1217 0.407317 84.4599 0.410179C80.64 0.426694 73.9339 0.455688 65.7445 0.437096C63.9458 0.433011 62.0767 0.424358 59.9438 0.414451C59.2941 0.411434 58.6196 0.408263 57.9153 0.405113C54.875 0.391512 51.181 0.377063 46.2623 0.368368C42.2031 0.361193 37.2559 0.357752 32.1189 0.354147C29.5885 0.352371 27.012 0.350525 24.4728 0.348226C16.8027 0.341281 9.77274 0.330264 2.75615 0.319234C2.75472 0.319234 2.75329 0.319234 2.75186 0.319234C1.92293 0.31793 1.27363 0.288829 1.30275 0.25429C1.33218 0.21977 2.02775 0.192815 2.85629 0.194108C9.87702 0.205145 16.8855 0.216178 24.53 0.223101C27.0306 0.225365 29.5869 0.22719 32.1074 0.22896C37.2695 0.232585 42.2854 0.236062 46.3825 0.243304C51.3848 0.252147 55.1464 0.266871 58.2286 0.280658C58.9709 0.283979 59.6689 0.287226 60.3314 0.290302C62.4408 0.300094 64.1943 0.30828 65.9004 0.312153C73.8298 0.330155 80.2824 0.302314 84.1166 0.285785C84.7966 0.282854 85.3943 0.280303 85.9033 0.2784C90.3143 0.261909 94.8654 0.23565 99.2557 0.209123C99.968 0.204819 100.677 0.200527 101.38 0.196244C101.381 0.196224 101.383 0.196204 101.384 0.196183C104.998 0.174179 108.47 0.153034 111.577 0.138687C114.73 0.124123 117.48 0.100135 120.052 0.0777107C121.433 0.0656779 122.762 0.0541375 124.075 0.0446898C128.595 0.0121673 132.58 0.00159729 142.679 1.07884e-05ZM5.7774 0.820713C7.77234 0.836397 9.39777 0.839705 10.6082 0.838658C9.58022 0.835094 8.55467 0.831356 7.52834 0.827488C6.9442 0.825287 6.36073 0.82303 5.7774 0.820713ZM107.32 0.512171C106.996 0.514207 106.671 0.516266 106.344 0.518336C107.246 0.517356 108.148 0.516444 109.049 0.515528C110.155 0.514405 111.261 0.513343 112.366 0.512293C110.609 0.511883 108.905 0.511764 107.32 0.512171ZM142.577 0.286335C136.963 0.286827 132.767 0.323335 128.983 0.356283C127.894 0.365771 126.837 0.374948 125.792 0.382895C125.358 0.386191 124.925 0.389834 124.489 0.393699C127.031 0.39566 129.369 0.397721 131.282 0.399436C136.992 0.404553 140.241 0.415216 143.097 0.424583C143.923 0.427293 144.717 0.429885 145.527 0.432213C146.197 0.428012 146.894 0.423846 147.597 0.420189C148.582 0.415019 149.647 0.41006 150.66 0.405845C151.677 0.401603 152.71 0.39781 153.725 0.394614C154.749 0.391391 155.763 0.388702 156.772 0.386374C157.722 0.384174 158.669 0.382316 159.585 0.380515C159.637 0.380413 159.69 0.380311 159.742 0.38021C160.71 0.378292 161.652 0.376458 162.517 0.373923C163.398 0.371318 164.13 0.368248 164.78 0.363607C165.592 0.357829 166.425 0.352281 167.248 0.347127C168.072 0.341963 168.893 0.337158 169.711 0.332662C170.531 0.328157 171.343 0.323949 172.158 0.319966C172.421 0.318678 172.696 0.317354 172.957 0.316121C173.077 0.315553 173.198 0.31497 173.318 0.314412C171.725 0.313981 170.071 0.313308 168.362 0.312275C165.893 0.310784 163.258 0.306694 160.35 0.302204C155.39 0.294545 149.639 0.285716 142.577 0.286335ZM197.459 0.303242C196.767 0.303568 195.753 0.304545 194.445 0.305806C194.136 0.306104 193.81 0.306457 193.468 0.306782C193.476 0.306812 193.484 0.306813 193.492 0.306843C194.339 0.310032 195.121 0.312813 195.966 0.315388C197.47 0.319957 198.932 0.323873 200.409 0.327229C201.891 0.330592 203.369 0.333345 204.849 0.335531C206.331 0.337717 207.817 0.339287 209.291 0.34023C210.778 0.341169 212.245 0.341532 213.725 0.341085C214.197 0.340943 214.67 0.340718 215.143 0.340413C214.087 0.337263 212.991 0.334665 211.833 0.331929C210.908 0.329745 209.943 0.327457 208.929 0.324727C208.541 0.323682 208.071 0.322081 207.523 0.32021C205.35 0.312797 201.942 0.301136 197.459 0.303242ZM226.953 0.305928C227.297 0.305098 227.639 0.304349 227.976 0.30373C228.937 0.301972 229.874 0.300966 230.793 0.30019C231.438 0.29965 232.076 0.299262 232.704 0.298847C232.969 0.298672 233.234 0.29848 233.496 0.298298C233.936 0.297994 234.372 0.297632 234.805 0.29726C231.767 0.29349 228.798 0.2906 225.703 0.289692C225.662 0.28968 225.621 0.289703 225.58 0.289692C226.048 0.295218 226.506 0.300632 226.953 0.305928Z" fill="url(#paint0_linear_189_833)"/>
<defs>
<linearGradient id="paint0_linear_189_833" x1="0" y1="1.5" x2="375" y2="1.5" gradientUnits="userSpaceOnUse">
<stop stop-color="#CAA557"/>
<stop offset="0.516593" stop-color="#F1EDCA"/>
<stop offset="1" stop-color="#CAA557"/>
</linearGradient>
</defs>
</svg>
