<svg width="87" height="3" viewBox="0 0 87 3" fill="none" xmlns="http://www.w3.org/2000/svg">
<path d="M33.1015 3.23125e-05C33.6276 -0.00103532 34.1208 0.0244868 34.7436 0.0567966C34.744 0.0567966 34.7443 0.0567966 34.7446 0.0567966C34.8336 0.0614126 34.9253 0.066247 35.0201 0.0710792C35.7832 0.109993 36.7748 0.155661 38.2699 0.181861C39.9219 0.210816 41.2335 0.315647 42.0344 0.416243C42.1837 0.435005 42.3383 0.445314 42.7283 0.454696C42.9841 0.460849 43.3298 0.466403 43.8288 0.474472C44.0942 0.478764 44.4031 0.483703 44.7647 0.489853C45.9618 0.510214 47.8378 0.503875 49.5664 0.49791C50.6155 0.49429 51.6106 0.490831 52.3664 0.493699C53.4718 0.497893 54.5383 0.516712 55.6978 0.537279C56.7597 0.556115 57.8995 0.576444 59.2184 0.588001C60.2304 0.596872 61.2135 0.673032 62.2126 0.75811C62.3398 0.768938 62.4675 0.779883 62.5953 0.790887C63.477 0.866798 64.3782 0.944514 65.3529 0.989013C67.0901 1.06833 68.4765 1.03556 70.0114 0.999267C70.6118 0.985075 71.235 0.97032 71.9108 0.961546C72.9796 0.947672 74.5161 0.950473 76.0589 0.954405C76.1904 0.95474 76.322 0.954977 76.4532 0.955321C76.4539 0.955321 76.4545 0.955321 76.4552 0.955321C77.8675 0.959013 79.2536 0.962636 80.2705 0.954588C81.8864 0.941797 82.4944 0.911573 83.0015 0.886288C83.1921 0.876783 83.3686 0.867907 83.579 0.861019C84.3367 0.836213 85.4805 0.840819 86.6399 0.845454C86.6443 0.845454 86.6488 0.845454 86.6532 0.845454C86.8456 0.846223 87.0009 0.930931 87 1.03461C86.9991 1.13829 86.8423 1.22178 86.6499 1.22101C86.0357 1.21856 85.4364 1.21618 84.8999 1.2179C84.872 1.30699 84.7276 1.37442 84.5544 1.37373C84.1208 1.37201 82.793 1.43913 80.7149 1.54878C80.8572 1.56502 80.9765 1.58082 81.0809 1.59584C81.2036 1.61347 81.2975 1.62863 81.3783 1.64162C81.5467 1.66869 81.6587 1.68655 81.8575 1.69967C82.3181 1.71458 83.0419 1.71768 83.8037 1.72072C83.996 1.72152 84.1513 1.80606 84.1505 1.90969C84.1495 2.01335 83.9927 2.09683 83.8004 2.0961C83.7966 2.0961 83.7928 2.0961 83.7891 2.0961C83.0346 2.09308 82.2875 2.09002 81.8064 2.07413C81.684 2.07008 81.5786 2.06529 81.4994 2.06094C81.4361 2.05746 81.3572 2.05274 81.3132 2.04666C81.3074 2.04585 81.2963 2.04422 81.2831 2.04172C81.2828 2.04166 81.2826 2.04159 81.2824 2.04153C81.275 2.04015 81.2371 2.03315 81.1968 2.01791C81.1886 2.01483 81.1709 2.00796 81.1503 1.99685C81.145 1.996 81.1397 1.99514 81.1344 1.99429C81.0603 1.98243 80.9848 1.97034 80.903 1.95858C80.5838 1.91269 80.0782 1.85485 79.0253 1.7936C78.0568 1.73727 76.4197 1.71201 74.377 1.71157C74.515 1.71933 74.6533 1.72686 74.7915 1.73409C75.1393 1.75226 75.4887 1.76883 75.8382 1.78463C75.9721 1.79066 76.1042 1.79657 76.2388 1.80239C76.4555 1.8118 76.6728 1.82103 76.89 1.83004C77.0367 1.83614 77.1838 1.84214 77.3307 1.84817C77.331 1.84817 77.3314 1.84817 77.3317 1.84817C77.5356 1.85654 77.74 1.86496 77.946 1.87362C78.0181 1.87684 78.0893 1.87994 78.1601 1.88296C78.4416 1.89498 78.7181 1.90665 79.0366 1.92929C79.0753 1.93303 79.1174 1.93788 79.1487 1.94192C79.1825 1.94618 79.215 1.95051 79.2456 1.95492C79.2727 1.95881 79.2985 1.96277 79.3233 1.96646C79.3266 1.96695 79.3299 1.96743 79.3333 1.96792C79.361 1.97205 79.3874 1.97586 79.4129 1.97946C79.4383 1.98306 79.4628 1.98652 79.4869 1.98953C79.4871 1.98953 79.4874 1.98953 79.4876 1.98953C79.5128 1.99261 79.5319 1.99493 79.5586 1.99759C79.5921 2.00091 79.6209 2.00347 79.6558 2.00601C79.6896 2.00848 79.7248 2.01068 79.7604 2.0126C79.7959 2.01452 79.8321 2.0162 79.8689 2.01773C79.9057 2.01926 79.9431 2.02068 79.9808 2.02194C80.0184 2.0232 80.0566 2.02431 80.0949 2.02542C80.1333 2.02653 80.1721 2.02765 80.2111 2.02872C80.3008 2.03119 80.3869 2.05199 80.45 2.08731C80.5132 2.12263 80.5483 2.16934 80.5479 2.21769C80.5475 2.26604 80.5115 2.3125 80.4477 2.34733C80.3839 2.38213 80.2976 2.40233 80.2078 2.40409C80.1833 2.40456 80.1588 2.4051 80.1341 2.40556C80.1194 2.40583 80.1047 2.40603 80.0899 2.40629C80.0504 2.40699 80.0104 2.40777 79.9701 2.4083C79.9299 2.40883 79.8894 2.40918 79.8483 2.4094C79.8072 2.40962 79.7655 2.40969 79.7232 2.4094C79.681 2.40911 79.6379 2.40849 79.5941 2.40739C79.5514 2.40635 79.5026 2.40453 79.459 2.40226C79.4272 2.40067 79.3879 2.39794 79.3552 2.39549C79.321 2.39292 79.2874 2.39005 79.2549 2.38706C79.2224 2.38407 79.191 2.3809 79.161 2.37791C79.1578 2.3776 79.1546 2.3773 79.1514 2.37699C79.1249 2.37435 79.0992 2.37177 79.0751 2.36948C79.048 2.36693 79.0224 2.36475 78.9981 2.36289C78.9713 2.3608 78.955 2.35998 78.935 2.35905C78.6709 2.35301 78.3445 2.35426 78.0333 2.35538C77.9942 2.35553 77.9553 2.35563 77.9168 2.35575C77.7124 2.35663 77.5084 2.35774 77.3045 2.35886C77.1563 2.35968 77.008 2.36052 76.8594 2.36124C76.6409 2.36232 76.4216 2.36317 76.2026 2.36381C76.0666 2.36418 75.9331 2.36442 75.7974 2.36454C75.4431 2.3649 75.0877 2.3644 74.7318 2.36216C74.3763 2.35992 74.0187 2.35601 73.6608 2.34934C73.3043 2.3427 72.9339 2.33276 72.5762 2.31766C72.3133 2.30638 72.0437 2.2867 71.7943 2.26639C71.6603 2.25545 71.529 2.24435 71.3997 2.23325C71.3992 2.23319 71.3988 2.23313 71.3984 2.23307C71.2849 2.22332 71.1728 2.21367 71.0615 2.2045C70.8229 2.18476 70.5886 2.16716 70.3543 2.15231C70.1203 2.13747 69.8874 2.12536 69.6527 2.11606C69.4198 2.10685 69.1829 2.10019 68.9484 2.0961C68.7127 2.09197 68.4814 2.0903 68.2382 2.09042C67.9185 2.09079 67.601 2.09414 67.2751 2.09811C66.9515 2.10217 66.6254 2.10725 66.2984 2.1124C66.1841 2.1142 66.0696 2.11587 65.9549 2.11771C65.9544 2.11771 65.954 2.11771 65.9536 2.11771C65.7414 2.1211 65.5288 2.12451 65.316 2.12778C64.9875 2.13282 64.658 2.13762 64.3273 2.14151C63.9967 2.14539 63.6641 2.14843 63.3297 2.14957C62.9953 2.15061 62.6519 2.14998 62.3069 2.14389C61.9991 2.13863 61.6889 2.13162 61.3856 2.12467C61.3055 2.12283 61.2254 2.121 61.1453 2.11917C60.7653 2.11061 60.3973 2.10377 60.0335 2.10251C59.6699 2.10109 59.3066 2.10497 58.94 2.11313C58.5744 2.12126 58.2043 2.13343 57.8311 2.1481C57.4564 2.16285 57.0865 2.17984 56.7091 2.19846C56.3345 2.217 55.9582 2.23691 55.5774 2.25797C55.3656 2.26963 55.1404 2.28035 54.9275 2.28946C54.7126 2.29867 54.4991 2.30681 54.2883 2.31437C54.2028 2.31744 54.1177 2.32037 54.0331 2.32334C53.9098 2.32767 53.7877 2.33191 53.6674 2.33634C53.4644 2.34383 53.2664 2.35184 53.074 2.36124C52.8817 2.37065 52.6951 2.38158 52.5148 2.39494C52.3282 2.40881 52.1744 2.42293 51.9904 2.44309C51.5424 2.48199 51.2648 2.49394 50.9563 2.50737C50.8955 2.51001 50.8334 2.51283 50.7688 2.51579C50.3988 2.53085 50.0293 2.54209 49.6646 2.55058C49.2964 2.55909 48.9339 2.56482 48.5667 2.56816C48.2032 2.57148 47.837 2.57227 47.4722 2.57091C47.108 2.56954 46.7445 2.56595 46.38 2.5601C46.0158 2.55427 45.644 2.54599 45.2871 2.53593C45.0809 2.53014 44.8617 2.52242 44.6582 2.51451C44.5114 2.50881 44.3667 2.50282 44.2248 2.49693C44.1668 2.49452 44.1092 2.49213 44.0522 2.48979C43.8555 2.48172 43.6643 2.47424 43.4797 2.46855C43.295 2.46284 43.1163 2.45883 42.9414 2.45738C42.7662 2.45591 42.5948 2.457 42.4233 2.46067C42.2456 2.46461 42.098 2.46989 41.9092 2.47953C41.7863 2.4859 41.6659 2.49233 41.5458 2.49876C41.3661 2.50839 41.1876 2.51822 41.0079 2.52842C40.8283 2.53862 40.6511 2.54904 40.4729 2.55992C40.4156 2.56342 40.3551 2.56711 40.2976 2.57072C40.1201 2.58188 39.9446 2.59336 39.7693 2.60551C39.5943 2.61764 39.4209 2.63032 39.2482 2.64378C39.0748 2.6573 38.9044 2.67138 38.7305 2.68663C38.435 2.71263 38.1522 2.7247 37.9045 2.73278C37.6538 2.74076 37.4196 2.7452 37.1916 2.74944C37.1489 2.75023 37.1062 2.75103 37.0635 2.75182C36.8796 2.75514 36.6987 2.75828 36.5205 2.76207C36.3009 2.76673 36.0854 2.77229 35.8691 2.77892C35.6546 2.78547 35.4381 2.79315 35.2249 2.80217C35.0096 2.81131 34.8038 2.82118 34.582 2.8333C34.3627 2.8452 34.1399 2.86072 33.8957 2.87762C33.6537 2.89439 33.3998 2.91162 33.1427 2.92669C32.8858 2.94181 32.6248 2.95487 32.3657 2.96514C32.1061 2.97547 31.8457 2.98329 31.5888 2.98876C31.3306 2.99429 31.0739 2.99752 30.8185 2.99902C30.5637 3.00052 30.3005 3.00026 30.0542 2.99847C29.6553 2.99557 29.2582 2.99147 28.8604 2.98693C28.4648 2.98238 28.068 2.97729 27.672 2.97192C27.2767 2.96654 26.8809 2.96093 26.4858 2.95507C26.0906 2.94922 25.6953 2.9432 25.3007 2.93713C25.2134 2.93578 25.1261 2.93444 25.0388 2.9331C24.7315 2.92836 24.4242 2.92362 24.1182 2.919C24.1161 2.91894 24.114 2.91888 24.1119 2.91882C23.718 2.91294 23.3313 2.90722 22.9407 2.90234C22.7973 2.90059 22.6596 2.89895 22.5195 2.89758C22.3794 2.89621 22.2419 2.8951 22.103 2.89428C21.9641 2.89346 21.8259 2.89301 21.6899 2.893C21.5523 2.89301 21.4183 2.89344 21.283 2.89465C21.159 2.8957 21.0358 2.89761 20.9013 2.89959C20.889 2.89977 20.8767 2.89996 20.8645 2.90014C20.7173 2.90232 20.5498 2.9037 20.3942 2.9027C19.982 2.89974 19.5802 2.89835 19.1712 2.89849C18.762 2.89862 18.3537 2.90024 17.9419 2.90252C17.7812 2.9034 17.6196 2.90448 17.4581 2.90545C17.2067 2.90696 16.9544 2.90848 16.7014 2.90966C16.285 2.91162 15.8678 2.91251 15.4479 2.91131C15.0295 2.91011 14.6085 2.90672 14.1894 2.90087C13.7706 2.89504 13.3481 2.88679 12.9312 2.87633C12.4667 2.86464 12.0049 2.85172 11.541 2.83825C11.0778 2.82475 10.6144 2.81062 10.1531 2.79613C9.69003 2.78162 9.22816 2.76672 8.76615 2.75145C8.30386 2.73618 7.84188 2.72054 7.37956 2.70458C7.10287 2.69501 6.82627 2.68528 6.54953 2.67546C6.40311 2.68427 6.26274 2.69291 6.12771 2.7011C5.12995 2.76161 4.40852 2.80526 3.45675 2.83532C3.3656 2.83987 3.29143 2.84635 3.2012 2.85418C3.18399 2.85567 3.16573 2.85716 3.14711 2.85876C3.02918 2.86883 2.89376 2.87937 2.70537 2.88604C2.32956 2.89934 1.75352 2.89645 1.00914 2.80877C0.821104 2.78662 0.701451 2.68664 0.741978 2.58537C0.770469 2.51434 0.87034 2.46156 0.992215 2.44401C0.767046 2.43196 0.542484 2.41936 0.3185 2.40684C0.229097 2.40182 0.145164 2.37852 0.0855212 2.34147C0.0259124 2.3044 -0.00458848 2.2568 0.000560183 2.20853C0.00571053 2.16025 0.0462864 2.11497 0.113399 2.082C0.180488 2.04907 0.268514 2.03123 0.358326 2.03201C0.596583 2.03416 0.834034 2.03634 1.07153 2.03787C1.30923 2.03942 1.54581 2.04033 1.78308 2.0408C2.02029 2.04127 2.25742 2.04121 2.4953 2.0408C2.73224 2.04037 2.96966 2.03967 3.20751 2.0386C3.44687 2.03756 3.68171 2.0361 3.92038 2.03457C4.06338 2.03364 4.2081 2.03272 4.35017 2.03165C4.40312 2.03128 4.45479 2.03077 4.50648 2.03036C4.54874 2.03003 4.5912 2.02976 4.63492 2.02945C5.09479 2.02577 5.55907 2.02165 6.01919 2.01718C6.48148 2.01273 6.9433 2.00803 7.40511 2.00308C7.86718 1.99813 8.32884 1.99286 8.79071 1.98752C9.25235 1.98216 9.71372 1.97663 10.176 1.97085C10.6365 1.96506 11.0989 1.95913 11.5602 1.95272C11.9171 1.94777 12.2709 1.94246 12.6252 1.93679C12.7648 1.92711 12.9028 1.91796 13.0391 1.90914C13.4357 1.8835 13.8329 1.84984 14.2242 1.81649C13.5278 1.83307 12.9683 1.85897 12.4357 1.88369C12.3643 1.88701 12.2934 1.89033 12.2227 1.89358C11.5008 1.9267 10.8034 1.95474 9.86533 1.94851C7.1975 1.9308 5.65059 1.91788 4.68669 1.89376C3.72297 1.86965 3.30888 1.8339 2.92242 1.76284C2.37635 1.66241 1.32238 1.60529 0.792755 1.60317C0.600363 1.6024 0.445069 1.51767 0.445942 1.41401C0.446871 1.31033 0.603647 1.22684 0.796074 1.22761C1.35532 1.22985 2.49581 1.28791 3.14578 1.40742C3.43527 1.46066 3.76818 1.49501 4.71723 1.51875C5.66637 1.5425 7.19901 1.55521 9.87197 1.57295C10.7762 1.57896 11.4474 1.55225 12.1616 1.51948C12.2316 1.51627 12.3022 1.5129 12.3733 1.5096C12.3738 1.5096 12.3742 1.5096 12.3747 1.5096C13.0307 1.47913 13.7451 1.44592 14.7084 1.43123C16.9288 1.39735 19.9155 1.33167 20.6245 1.29462C20.7637 1.28735 20.8982 1.27919 21.04 1.27064C21.5846 1.23782 22.242 1.19823 23.7236 1.17194C24.0476 1.16619 24.4272 1.16285 24.8414 1.16132C25.4629 1.11079 26.0663 1.06391 26.591 1.03607C27.0439 1.01205 27.4615 0.967851 27.8661 0.919431C27.9826 0.90549 28.0999 0.890913 28.2169 0.8764C28.4992 0.841395 28.7817 0.80641 29.0569 0.779351C29.2763 0.757782 29.5061 0.731863 29.7489 0.704459C30.6334 0.604631 31.6934 0.485011 33.0746 0.483444C34.5388 0.481785 35.7924 0.503377 36.8736 0.524461C36.0796 0.50007 35.4667 0.470846 34.9561 0.444808C34.8597 0.439897 34.7675 0.435125 34.6786 0.430525C34.0511 0.398036 33.5948 0.374416 33.1058 0.375409C30.7703 0.380154 29.8943 0.411985 28.9059 0.503953C28.6457 0.528167 28.3586 0.560424 28.0493 0.595142C27.4312 0.664531 26.7241 0.743865 25.9645 0.789239C25.2569 0.831496 24.4655 0.893879 23.627 0.959898C23.6267 0.959898 23.6264 0.959898 23.626 0.959898C23.4622 0.972799 23.2964 0.985837 23.1292 0.998901C22.1097 1.07855 21.0374 1.15865 19.9936 1.20911C19.882 1.21451 19.7482 1.22195 19.5947 1.23054C18.7085 1.28008 17.1527 1.36706 15.2527 1.31129C14.8354 1.29903 14.4018 1.27308 13.907 1.24335C13.7562 1.2343 13.5997 1.22479 13.4364 1.21534C12.731 1.17454 11.874 1.13119 10.7329 1.10511C9.79112 1.08358 8.64338 1.07326 7.45158 1.06244C6.86453 1.05711 6.26678 1.05158 5.67768 1.04468C3.89822 1.02384 2.26728 0.990793 0.639427 0.957701C0.639095 0.957701 0.638764 0.957701 0.638432 0.957701C0.446121 0.953791 0.295481 0.866486 0.302238 0.762871C0.309065 0.659309 0.470437 0.578446 0.662659 0.582324C2.29147 0.615436 3.91743 0.648535 5.69096 0.669302C6.2711 0.676095 6.86417 0.68157 7.44892 0.68688C8.64652 0.697756 9.81022 0.708185 10.7607 0.729911C11.9213 0.75644 12.794 0.800612 13.509 0.841975C13.6813 0.851937 13.8432 0.861679 13.9969 0.870907C14.4863 0.900284 14.8931 0.924839 15.2889 0.93646C17.1285 0.990465 18.6255 0.906943 19.515 0.857356C19.6728 0.848561 19.8115 0.840909 19.9296 0.8352C20.9529 0.785727 22.0088 0.70695 23.0273 0.627369C23.1926 0.614458 23.357 0.601581 23.5202 0.588733C23.5205 0.588672 23.5208 0.588611 23.5212 0.58855C24.3595 0.522538 25.1651 0.459103 25.8858 0.41606C26.6174 0.372369 27.2554 0.300406 27.8522 0.233132C28.1724 0.197034 28.4808 0.162413 28.7854 0.134069C29.834 0.036502 30.7585 0.00479186 33.1015 3.23125e-05ZM1.34036 2.46214C1.80318 2.50919 2.18028 2.51911 2.46111 2.51597C2.22261 2.50528 1.98468 2.49407 1.74658 2.48246C1.61105 2.47586 1.47569 2.46909 1.34036 2.46214ZM24.8981 1.53651C24.8231 1.54262 24.7476 1.5488 24.6718 1.55501C24.8811 1.55207 25.0904 1.54933 25.2994 1.54658C25.556 1.54321 25.8125 1.54003 26.069 1.53688C25.6612 1.53565 25.2661 1.53529 24.8981 1.53651ZM33.0779 0.859004C31.7753 0.860482 30.8019 0.970004 29.9241 1.06885C29.6713 1.09731 29.4262 1.12484 29.1837 1.14869C29.0831 1.15857 28.9826 1.1695 28.8813 1.1811C29.4713 1.18698 30.0135 1.19316 30.4574 1.19831C31.7821 1.21366 32.5359 1.24565 33.1984 1.27375C33.3901 1.28188 33.5743 1.28965 33.7623 1.29664C33.9178 1.28404 34.0793 1.27154 34.2425 1.26057C34.471 1.24506 34.718 1.23018 34.9531 1.21753C35.189 1.20481 35.4288 1.19343 35.6643 1.18384C35.9017 1.17417 36.137 1.16611 36.3712 1.15912C36.5915 1.15252 36.8112 1.14695 37.0237 1.14154C37.0358 1.14124 37.048 1.14093 37.0602 1.14063C37.2848 1.13488 37.5033 1.12937 37.704 1.12177C37.9084 1.11395 38.0783 1.10474 38.229 1.09082C38.4173 1.07349 38.6105 1.05684 38.8015 1.04138C38.9928 1.02589 39.1832 1.01147 39.373 0.997985C39.5633 0.984471 39.7517 0.971847 39.9405 0.959898C40.0016 0.956035 40.0655 0.952061 40.1261 0.948362C40.154 0.946658 40.1819 0.944909 40.2097 0.943235C39.8402 0.941942 39.4566 0.939923 39.0601 0.936826C38.4873 0.932352 37.8758 0.920082 37.2012 0.906613C36.0505 0.883635 34.7163 0.857148 33.0779 0.859004ZM45.8105 0.909726C45.6498 0.910703 45.4146 0.913636 45.1112 0.917417C45.0395 0.918311 44.9638 0.919372 44.8845 0.920346C44.8864 0.920437 44.8883 0.920439 44.8902 0.92053C45.0867 0.930097 45.2682 0.938438 45.464 0.946165C45.8131 0.959871 46.1523 0.97162 46.4948 0.981688C46.8387 0.991775 47.1817 1.00004 47.525 1.00659C47.8688 1.01315 48.2137 1.01786 48.5555 1.02069C48.9006 1.02351 49.2408 1.0246 49.5843 1.02325C49.6937 1.02283 49.8034 1.02215 49.9132 1.02124C49.6682 1.01179 49.4139 1.004 49.1452 0.995788C48.9307 0.989233 48.7068 0.982372 48.4715 0.974181C48.3814 0.971046 48.2724 0.966242 48.1453 0.960631C47.6413 0.938392 46.8505 0.903407 45.8105 0.909726ZM52.6532 0.917783C52.7329 0.915294 52.8121 0.913047 52.8905 0.911191C53.1135 0.905915 53.3308 0.902898 53.5439 0.90057C53.6936 0.89895 53.8415 0.897787 53.9873 0.896542C54.0488 0.896017 54.1103 0.89544 54.1712 0.894894C54.2732 0.893983 54.3744 0.892895 54.4749 0.891781C53.7701 0.880471 53.0811 0.8718 52.3631 0.869075C52.3536 0.86904 52.3441 0.869109 52.3346 0.869075C52.4432 0.885652 52.5494 0.901896 52.6532 0.917783Z" fill="url(#paint0_linear_108_340)"/>
<defs>
<linearGradient id="paint0_linear_108_340" x1="0" y1="3.5" x2="87" y2="3.5" gradientUnits="userSpaceOnUse">
<stop stop-color="#CAA557"/>
<stop offset="0.516593" stop-color="#F1EDCA"/>
<stop offset="1" stop-color="#CAA557"/>
</linearGradient>
</defs>
</svg>
