<svg width="28" height="28" viewBox="0 0 28 28" fill="none" xmlns="http://www.w3.org/2000/svg">
<path d="M12.8335 2.3335H2.3335V12.8335C2.93211 7.31655 7.31655 2.94829 12.8335 2.3335Z" fill="url(#paint0_linear_277_286)"/>
<path d="M15.1665 25.6665H25.6665V15.1665C25.0679 20.6835 20.6835 25.0517 15.1665 25.6665Z" fill="url(#paint1_linear_277_286)"/>
<path d="M25.6665 12.8335V2.3335H15.1665C20.6835 2.93211 25.0517 7.31655 25.6665 12.8335Z" fill="url(#paint2_linear_277_286)"/>
<path d="M2.3335 15.1665V25.6665H12.8335C7.31655 25.0679 2.94829 20.6835 2.3335 15.1665Z" fill="url(#paint3_linear_277_286)"/>
<circle cx="14" cy="14" r="2" fill="url(#paint4_linear_277_286)"/>
<defs>
<linearGradient id="paint0_linear_277_286" x1="2.3335" y1="7.5835" x2="12.8335" y2="7.5835" gradientUnits="userSpaceOnUse">
<stop stop-color="#CAA557"/>
<stop offset="0.516593" stop-color="#F1EDCA"/>
<stop offset="1" stop-color="#CAA557"/>
</linearGradient>
<linearGradient id="paint1_linear_277_286" x1="15.1665" y1="20.4165" x2="25.6665" y2="20.4165" gradientUnits="userSpaceOnUse">
<stop stop-color="#CAA557"/>
<stop offset="0.516593" stop-color="#F1EDCA"/>
<stop offset="1" stop-color="#CAA557"/>
</linearGradient>
<linearGradient id="paint2_linear_277_286" x1="15.1665" y1="7.5835" x2="25.6665" y2="7.5835" gradientUnits="userSpaceOnUse">
<stop stop-color="#CAA557"/>
<stop offset="0.516593" stop-color="#F1EDCA"/>
<stop offset="1" stop-color="#CAA557"/>
</linearGradient>
<linearGradient id="paint3_linear_277_286" x1="2.3335" y1="20.4165" x2="12.8335" y2="20.4165" gradientUnits="userSpaceOnUse">
<stop stop-color="#CAA557"/>
<stop offset="0.516593" stop-color="#F1EDCA"/>
<stop offset="1" stop-color="#CAA557"/>
</linearGradient>
<linearGradient id="paint4_linear_277_286" x1="12" y1="14" x2="16" y2="14" gradientUnits="userSpaceOnUse">
<stop stop-color="#CAA557"/>
<stop offset="0.516593" stop-color="#F1EDCA"/>
<stop offset="1" stop-color="#CAA557"/>
</linearGradient>
</defs>
</svg>
