<svg width="24" height="24" viewBox="0 0 24 24" fill="none" xmlns="http://www.w3.org/2000/svg">
<path d="M17.2324 6.33057C16.9915 6.33057 16.7954 6.52663 16.7954 6.76756C16.7954 7.00848 16.9915 7.20455 17.2324 7.20455C17.4734 7.20455 17.6694 7.00852 17.6694 6.76756C17.6694 6.5266 17.4734 6.33057 17.2324 6.33057Z" fill="#fff"/>
<path d="M12.0001 8.12598C9.86389 8.12598 8.12598 9.86389 8.12598 12.0001C8.12598 14.1362 9.86389 15.8742 12.0001 15.8742C14.1363 15.8742 15.8742 14.1363 15.8742 12.0001C15.8742 9.86393 14.1363 8.12598 12.0001 8.12598Z" fill="#fff"/>
<path d="M16.0656 3H7.93443C5.21358 3 3 5.21358 3 7.93446V16.0656C3 18.7865 5.21358 21 7.93443 21H16.0656C18.7865 21 21 18.7864 21 16.0656V7.93446C21 5.21358 18.7865 3 16.0656 3ZM12 16.9371C9.27768 16.9371 7.06297 14.7223 7.06297 12C7.06297 9.27768 9.27771 7.06301 12 7.06301C14.7223 7.06301 16.9371 9.27771 16.9371 12C16.9371 14.7223 14.7223 16.9371 12 16.9371ZM17.2323 8.26767C16.4053 8.26767 15.7324 7.59478 15.7324 6.7677C15.7324 5.94061 16.4053 5.26768 17.2323 5.26768C18.0594 5.26768 18.7323 5.94057 18.7323 6.76766C18.7323 7.59475 18.0594 8.26767 17.2323 8.26767Z" fill="#fff"/>
</svg>
