<svg width="24" height="24" viewBox="0 0 24 24" fill="none" xmlns="http://www.w3.org/2000/svg">
<path d="M9.84846 13.1625C9.77781 13.1625 8.29572 13.1629 7.61216 13.1623C7.26025 13.162 7.1347 13.0356 7.1347 12.6814C7.13425 11.7718 7.13403 10.8621 7.1347 9.95241C7.13493 9.60276 7.26768 9.46933 7.61508 9.46911C8.29864 9.46866 9.77264 9.46888 9.84846 9.46888C9.84846 9.40656 9.84824 8.09324 9.84846 7.48844C9.84891 6.59429 10.0084 5.73839 10.4627 4.95471C10.9278 4.15259 11.6046 3.60314 12.472 3.28544C13.0275 3.08181 13.6042 3.00059 14.1937 3.00014C14.9313 2.99969 15.6688 3.00036 16.4066 3.00171C16.7237 3.00216 16.8643 3.14234 16.865 3.46161C16.8663 4.31729 16.8663 5.17296 16.865 6.02841C16.8645 6.35106 16.7297 6.48066 16.4055 6.48426C15.8009 6.49079 15.1959 6.48674 14.592 6.51104C13.982 6.51104 13.6611 6.80894 13.6611 7.44029C13.6465 8.10809 13.6551 8.77656 13.6551 9.46866C13.7122 9.46866 15.4481 9.46843 16.2595 9.46866C16.628 9.46866 16.754 9.59533 16.754 9.96591C16.754 10.8706 16.7538 11.7756 16.7531 12.6803C16.7529 13.0455 16.6346 13.162 16.2637 13.1623C15.4524 13.1627 13.7232 13.1625 13.6476 13.1625V20.4851C13.6476 20.8755 13.5248 20.9999 13.1396 20.9999C12.2004 20.9999 11.261 21.0001 10.3219 20.9999C9.98144 20.9999 9.84869 20.8676 9.84869 20.5272C9.84846 18.1424 9.84846 13.2462 9.84846 13.1625Z" fill="#fff"/>
</svg>
