<svg width="168" height="221" viewBox="0 0 168 221" fill="none" xmlns="http://www.w3.org/2000/svg">
<g opacity="0.4">
<path d="M-53 170.157C-50.024 196.871 -28.8795 218.101 -2.1748 221H-53V170.157Z" fill="url(#paint0_linear_82_2834)"/>
<path d="M0.0986328 170.157C3.07466 196.871 24.2192 218.101 50.9238 221H0.0986328V170.157Z" fill="url(#paint1_linear_82_2834)"/>
<path d="M114.514 221H63.6885C90.3932 218.023 111.616 196.871 114.514 170.157V221Z" fill="url(#paint2_linear_82_2834)"/>
<path d="M168.001 221H117.176C143.88 218.023 165.103 196.871 168.001 170.157V221Z" fill="url(#paint3_linear_82_2834)"/>
<path d="M-53 116.414C-50.0241 143.128 -28.8796 164.359 -2.1748 167.258H-53V116.414Z" fill="url(#paint4_linear_82_2834)"/>
<path d="M0.0986328 116.414C3.07454 143.128 24.2191 164.359 50.9238 167.258H0.0986328V116.414Z" fill="url(#paint5_linear_82_2834)"/>
<path d="M114.514 167.258H63.6885C90.3933 164.281 111.616 143.128 114.514 116.414V167.258Z" fill="url(#paint6_linear_82_2834)"/>
<path d="M168.001 167.258H117.176C143.88 164.281 165.103 143.128 168.001 116.414V167.258Z" fill="url(#paint7_linear_82_2834)"/>
<path d="M-2.1748 52.8018C-28.8796 55.7788 -50.1024 76.9312 -53 103.646V52.8018H-2.1748Z" fill="url(#paint8_linear_82_2834)"/>
<path d="M50.9238 52.8018C24.2191 55.7788 2.99625 76.9312 0.0986328 103.646V52.8018H50.9238Z" fill="url(#paint9_linear_82_2834)"/>
<path d="M114.437 103.646C111.461 76.9313 90.316 55.7006 63.6113 52.8018H114.437V103.646Z" fill="url(#paint10_linear_82_2834)"/>
<path d="M168.001 103.646C165.025 76.9313 143.88 55.7006 117.176 52.8018H168.001V103.646Z" fill="url(#paint11_linear_82_2834)"/>
<path d="M-2.1748 0C-28.8796 2.97706 -50.1024 24.1294 -53 50.8438V0H-2.1748Z" fill="url(#paint12_linear_82_2834)"/>
<path d="M50.9238 0C24.2191 2.97706 2.99622 24.1294 0.0986328 50.8438V0H50.9238Z" fill="url(#paint13_linear_82_2834)"/>
<path d="M114.437 50.8438C111.461 24.1295 90.316 2.89883 63.6113 0H114.437V50.8438Z" fill="url(#paint14_linear_82_2834)"/>
<path d="M168.001 50.8438C165.025 24.1295 143.88 2.89883 117.176 0H168.001V50.8438Z" fill="url(#paint15_linear_82_2834)"/>
</g>
<defs>
<linearGradient id="paint0_linear_82_2834" x1="168" y1="-14" x2="69.5" y2="238.5" gradientUnits="userSpaceOnUse">
<stop stop-color="#CAA557"/>
<stop offset="0.516593" stop-color="#F1EDCA"/>
<stop offset="1" stop-color="#CAA557"/>
</linearGradient>
<linearGradient id="paint1_linear_82_2834" x1="168" y1="-14" x2="69.5" y2="238.5" gradientUnits="userSpaceOnUse">
<stop stop-color="#CAA557"/>
<stop offset="0.516593" stop-color="#F1EDCA"/>
<stop offset="1" stop-color="#CAA557"/>
</linearGradient>
<linearGradient id="paint2_linear_82_2834" x1="168" y1="-14" x2="69.5" y2="238.5" gradientUnits="userSpaceOnUse">
<stop stop-color="#CAA557"/>
<stop offset="0.516593" stop-color="#F1EDCA"/>
<stop offset="1" stop-color="#CAA557"/>
</linearGradient>
<linearGradient id="paint3_linear_82_2834" x1="168" y1="-14" x2="69.5" y2="238.5" gradientUnits="userSpaceOnUse">
<stop stop-color="#CAA557"/>
<stop offset="0.516593" stop-color="#F1EDCA"/>
<stop offset="1" stop-color="#CAA557"/>
</linearGradient>
<linearGradient id="paint4_linear_82_2834" x1="168" y1="-14" x2="69.5" y2="238.5" gradientUnits="userSpaceOnUse">
<stop stop-color="#CAA557"/>
<stop offset="0.516593" stop-color="#F1EDCA"/>
<stop offset="1" stop-color="#CAA557"/>
</linearGradient>
<linearGradient id="paint5_linear_82_2834" x1="168" y1="-14" x2="69.5" y2="238.5" gradientUnits="userSpaceOnUse">
<stop stop-color="#CAA557"/>
<stop offset="0.516593" stop-color="#F1EDCA"/>
<stop offset="1" stop-color="#CAA557"/>
</linearGradient>
<linearGradient id="paint6_linear_82_2834" x1="168" y1="-14" x2="69.5" y2="238.5" gradientUnits="userSpaceOnUse">
<stop stop-color="#CAA557"/>
<stop offset="0.516593" stop-color="#F1EDCA"/>
<stop offset="1" stop-color="#CAA557"/>
</linearGradient>
<linearGradient id="paint7_linear_82_2834" x1="168" y1="-14" x2="69.5" y2="238.5" gradientUnits="userSpaceOnUse">
<stop stop-color="#CAA557"/>
<stop offset="0.516593" stop-color="#F1EDCA"/>
<stop offset="1" stop-color="#CAA557"/>
</linearGradient>
<linearGradient id="paint8_linear_82_2834" x1="168" y1="-14" x2="69.5" y2="238.5" gradientUnits="userSpaceOnUse">
<stop stop-color="#CAA557"/>
<stop offset="0.516593" stop-color="#F1EDCA"/>
<stop offset="1" stop-color="#CAA557"/>
</linearGradient>
<linearGradient id="paint9_linear_82_2834" x1="168" y1="-14" x2="69.5" y2="238.5" gradientUnits="userSpaceOnUse">
<stop stop-color="#CAA557"/>
<stop offset="0.516593" stop-color="#F1EDCA"/>
<stop offset="1" stop-color="#CAA557"/>
</linearGradient>
<linearGradient id="paint10_linear_82_2834" x1="168" y1="-14" x2="69.5" y2="238.5" gradientUnits="userSpaceOnUse">
<stop stop-color="#CAA557"/>
<stop offset="0.516593" stop-color="#F1EDCA"/>
<stop offset="1" stop-color="#CAA557"/>
</linearGradient>
<linearGradient id="paint11_linear_82_2834" x1="168" y1="-14" x2="69.5" y2="238.5" gradientUnits="userSpaceOnUse">
<stop stop-color="#CAA557"/>
<stop offset="0.516593" stop-color="#F1EDCA"/>
<stop offset="1" stop-color="#CAA557"/>
</linearGradient>
<linearGradient id="paint12_linear_82_2834" x1="168" y1="-14" x2="69.5" y2="238.5" gradientUnits="userSpaceOnUse">
<stop stop-color="#CAA557"/>
<stop offset="0.516593" stop-color="#F1EDCA"/>
<stop offset="1" stop-color="#CAA557"/>
</linearGradient>
<linearGradient id="paint13_linear_82_2834" x1="168" y1="-14" x2="69.5" y2="238.5" gradientUnits="userSpaceOnUse">
<stop stop-color="#CAA557"/>
<stop offset="0.516593" stop-color="#F1EDCA"/>
<stop offset="1" stop-color="#CAA557"/>
</linearGradient>
<linearGradient id="paint14_linear_82_2834" x1="168" y1="-14" x2="69.5" y2="238.5" gradientUnits="userSpaceOnUse">
<stop stop-color="#CAA557"/>
<stop offset="0.516593" stop-color="#F1EDCA"/>
<stop offset="1" stop-color="#CAA557"/>
</linearGradient>
<linearGradient id="paint15_linear_82_2834" x1="168" y1="-14" x2="69.5" y2="238.5" gradientUnits="userSpaceOnUse">
<stop stop-color="#CAA557"/>
<stop offset="0.516593" stop-color="#F1EDCA"/>
<stop offset="1" stop-color="#CAA557"/>
</linearGradient>
</defs>
</svg>
